# xmcd CD database file generated by Grip 3.1.2
# 
# Track frame offsets:
#       150
#       14240
#       31148
# 
# Disc length: 678 seconds
# 
# Revision: 3
# Processed by: cddbd v1.4PL0 Copyright (c) Steve Scherf et al.
# Submitted via: Grip 3.1.2
# 
DISCID=1e02a403
DTITLE=Skintrade - Snap goes your mind
DYEAR=1995
DGENRE=Rock
TTITLE0=Snap goes your mind
TTITLE1=Can you spin me?
TTITLE2=Snap goes your mind (album version)
EXTD=
EXTT0=
EXTT1=
EXTT2=
PLAYORDER=
